<?xml version="1.0" standalone="no"?>
<!DOCTYPE svg PUBLIC "-//W3C//DTD SVG 20010904//EN"
 "http://www.w3.org/TR/2001/REC-SVG-20010904/DTD/svg10.dtd">
<svg version="1.0" xmlns="http://www.w3.org/2000/svg"
 width="657.000000pt" height="657.000000pt" viewBox="0 0 657.000000 657.000000"
 preserveAspectRatio="xMidYMid meet">
<metadata>
Created by potrace 1.11, written by Peter Selinger 2001-2013
</metadata>
<g transform="translate(0.000000,657.000000) scale(0.100000,-0.100000)"
fill="#000000" stroke="none">
<path d="M2325 6406 c-131 -25 -230 -57 -342 -112 -173 -83 -280 -195 -324
-335 -23 -75 -25 -203 -4 -279 25 -88 28 -83 -53 -96 -399 -68 -690 -398 -752
-853 -12 -90 -16 -238 -7 -248 4 -3 7 -22 7 -42 0 -20 9 -74 19 -121 69 -309
218 -544 414 -654 165 -92 388 -100 576 -21 47 19 67 23 75 15 14 -14 11 -669
-4 -920 -6 -96 -10 -193 -10 -215 1 -60 -28 -441 -46 -595 -38 -343 -76 -548
-165 -910 -57 -229 -60 -248 -49 -290 42 -160 448 -350 884 -414 265 -39 677
-40 1121 -1 233 20 333 39 523 96 305 92 532 194 629 283 124 113 123 199 -5
501 -33 77 -67 163 -76 192 -16 48 -16 54 -1 83 9 17 39 45 68 63 57 36 66 40
180 91 294 132 535 406 655 748 66 187 82 385 63 803 -27 602 -136 951 -368
1177 -122 120 -246 170 -413 170 -119 0 -209 -20 -347 -77 -47 -19 -90 -32
-94 -29 -24 14 -2 37 67 69 260 120 456 334 514 561 76 296 -85 602 -349 664
-62 15 -155 8 -220 -14 -24 -9 -47 -13 -52 -10 -5 3 -9 35 -9 72 0 214 -233
382 -529 382 -201 0 -352 -68 -443 -200 l-17 -25 -23 30 c-78 103 -197 230
-255 274 -87 65 -224 133 -338 167 -79 24 -110 27 -260 30 -113 2 -193 -1
-240 -10z m2688 -2229 c77 -35 119 -69 176 -141 133 -169 204 -377 234 -681
18 -179 14 -426 -7 -525 -65 -298 -223 -546 -426 -666 -107 -63 -204 -92 -332
-99 l-67 -3 -10 31 c-5 18 -12 50 -16 72 -11 80 -25 177 -30 223 -3 26 -8 61
-10 77 -13 97 -25 337 -24 460 0 55 1 105 1 110 0 6 -3 116 -7 245 -13 477
-13 679 -3 750 9 62 15 74 42 95 27 20 158 64 236 79 14 2 61 3 106 2 62 -2
94 -9 137 -29z"/>
</g>
</svg>
